<svg id="Layer_1" data-name="Layer 1" xmlns="http://www.w3.org/2000/svg" viewBox="0 0 629.51 368.7"><defs><style>.cls-1{fill:#5a6271;}.cls-2{fill:#c3272e;}.cls-3{fill:#fff;}.cls-4{fill:#666;}</style></defs><path class="cls-1" d="M360.51,83.46c3.4,2.91,4.57,2.91,8.17,2.21s5.47-5.26,5.81-7.4.28-6.37-1.93-8.79c-4.64-4.71-16.41-10.17-22.08-11.49s-14.38-1.5-17.86,1.66c-4.57,4.15-7.19,6.86-13.42,17.79a88,88,0,0,0-11.7,37c-.36,4,.07,19.93,1.73,29.55s4.15,22.84,6.44,36.89c2.24,13.81,4,19,2.49,36.34a23.85,23.85,0,0,1-13,19.17c-6.09,3-17.44.9-24.09-2.43a69.58,69.58,0,0,1-12.87-8.85c.34,3.32,7.2,14.05,11,17s7.48,6.44,17.1,9.28,19,2.62,28.58-4.92,9.62-18.75,9.55-30.38-1.38-15.3-2.49-22.22-5.12-25.68-5.81-30.11a181.21,181.21,0,0,1-1.73-27.26c.13-12,1.31-13.85,3.66-25.06s7.34-20.07,8.38-22.29,6.57-10.86,12.11-11S357.12,80.55,360.51,83.46Z"/><path class="cls-1" d="M389.18,148.63c1.34.52,2.83,0,4.4-2.09s19.75-29,22-33.91,1.63-6.41.74-8.57-4.32-4.55-5.81-5.29a4,4,0,0,0-5.15.89c-7.45,7.3-18.56,35.11-19.52,37.94a14,14,0,0,0-.9,7.08C385.3,146.62,387.84,148.11,389.18,148.63Z"/><path class="cls-1" d="M480.19,264.52c-1.86,0-19.78-1.66-22.67-2S455.34,261,456,258.2s20.56-61.67,22.78-68.14c2.43-7,5.13-13.25,7.3-15.74,1.63-1.86,2.82-2.71.44-4.41a91.83,91.83,0,0,0-10.38-6.15c-2.53-1.19-4.86-1.35-5.9-.62s-1.71,3.52-2,4.6-1.55,2.23-2.22.94-.57-1.82-1.56-8.86a37.66,37.66,0,0,0-7-16.1c-1.66-1.92-7.66-7.2-18.33-2.12s-18,14-22.88,20.76S403.66,184.16,402,188s-3.58,4.56-5.7,6.06-8,7-13.77,12.37-18,18.28-20.14,20.09-2.33.05-2.28-2.07,2.69-10.77,4-14,6.16-12.74,8.63-17.48c3.13-6,8.63-11.88,13-15.75,2.64-2.34,2-4.65.69-5.86-4.1-3.82-9-7.06-14-8.09-3-.62-3.61,3.27-4.73,6.54s-3.23,7.35-6.46,14.38c-5.83,12.69-16.81,30.78-15.43,47.9.66,8.17,7.39,13.88,10.63,16.3s4.63.89,5.67-.62c6.91-10.15,22.64-31.49,33.55-45,1.16-1.44,2.21-1.45,1.93.28s-3.73,13.74-2.14,25.54,11.74,17.19,16.91,19.61c4.82,2.25,6,.69,7.25-1,1.63-2.16,22.3-37.07,36.52-48.39,2.33-1.85,3-1.24,2.49,1.17S439.84,257.58,439,259.37s-1.59,2-2.9,2-19.4-.07-24.85.48-11.81.83-15.4,2.07c-10.44,3.62-14.74,12.15-17.19,25.06-2.12,11.18-1.93,36.73,7.18,50.92s17.4,9.73,22.37,6.93,14.91-14.39,22.68-29.72,19.26-43.49,20.19-45.35,4.56-1.45,10.57-1.56,15.43-1.65,18.95-3.21S482.06,264.52,480.19,264.52Zm-25.6-74.61c-4.21,5-17.13,17.47-20.36,21.29S417.88,229,416.46,230.63s-3.73.92-3.48-3.47,1.19-15.47,3.78-24.8c4.11-14.76,13.46-36.05,22.76-45.13,2.84-2.77,8.22-4.82,10.77-4.53s6.12,2.06,7.29,8.08a77.45,77.45,0,0,1,1.62,17C459,182.17,458.8,184.91,454.59,189.91Zm-21.44,84.87c-.82,2.32-7.77,17.68-10.09,23.13s-9.9,19.76-15.41,26.47-10,9-11.59,9.56-7.83,1.4-9.37-7.1a84.25,84.25,0,0,1-.92-26.51,60.93,60.93,0,0,1,4.3-16.18c1.83-4.12,3.82-8.16,7.15-9.66A46.24,46.24,0,0,1,410,271.54c3.81-.34,20-.67,22.31-.58S434,272.46,433.15,274.78Z"/><path class="cls-1" d="M543.4,230.78c-3.38,3.34-4.47,2.57-3.92-1.05,1-6.87,3.36-12.68,6-18.92S560.92,181,563.79,176s2-5.76.84-7.36c-3.15-4.2-12-10-17.44-12.47-2.2-1-4.77-1.12-6.87.91s-24.45,32-27.89,36.44-15.41,22.84-18,26.27c-2.41,3.2-2.59.84-2.24-.14s2.31-4.34,6.09-12.19,14.79-21.65,17-24.17,2.17-5.33.77-7.08-10.44-9.25-12.4-10.65-4.14.35-5.05,2.8-4.59,10.85-7,16.19c-1.82,4-10.15,23.75-12.54,30.55s-5,17.3-6.26,22.77c-1.43,6.07-1.72,8,.24,11.07s8.27,3.92,10.86,4.06,3-.77,3.43-1.68,1.05-4,1.75-6a176.48,176.48,0,0,1,8.34-17.51c4.27-8,18.43-26.42,21.44-30.34,3.79-4.94,17.17-18.36,22.49-22.28,1.77-1.31,3.58.21,2.81,1.4s-1.06,1.61-2.67,4.2c-3.78,6.1-11.14,24.53-14.71,38.4a37.81,37.81,0,0,0,.07,18.15c1.26,5,9.88,10.44,13.07,12s4.1.84,5.08-.56,15.55-21.37,19.27-26.21,20.45-25.92,21.58-27.11a13.77,13.77,0,0,1,2.38-2.24v-3.37C580.33,192,548.45,225.81,543.4,230.78Z"/><path class="cls-2" d="M253.72,240H200.77l-54.18-76.67h-11v47.17q0,13.64,1.67,17.18a12.33,12.33,0,0,0,5.9,5.66q4.22,2.1,15.74,2.11V240h-86v-4.57q11.64,0,15.81-2.18a12.68,12.68,0,0,0,5.75-5.56q1.68-3.48,1.68-17.11V111.39q0-13.64-1.68-17.18a12.27,12.27,0,0,0-5.85-5.51A17.63,17.63,0,0,0,84,87.36H36.09A134.29,134.29,0,0,0,255.63,240.08Z"/><path class="cls-2" d="M148.82,80.89H135.55v73.65h7.07q17.22,0,25.78-3.16A25.68,25.68,0,0,0,181.86,140a41.79,41.79,0,0,0,4.79-21.57q0-19.17-9-28.39T148.82,80.89Z"/><path class="cls-2" d="M108.09,71.93h42.84q30.49,0,44.64,4.22a44.86,44.86,0,0,1,23,15.55,41.72,41.72,0,0,1,8.94,26.59A39.74,39.74,0,0,1,214.21,149a55.24,55.24,0,0,1-24,11.62l40.42,56.9c2.39,3.19,4.26,5.8,6,8h29.75A134.29,134.29,0,0,0,46.3,71.93Z"/><path class="cls-3" d="M236.63,225.27c-1.72-2.13-3.69-4.79-6-8l-40.39-56.74a55.28,55.28,0,0,0,24-11.52,39.74,39.74,0,0,0,13.39-30.74,41.75,41.75,0,0,0-8.94-26.6,44.91,44.91,0,0,0-23-15.55q-14.18-4.23-44.68-4.24H46.3A135.53,135.53,0,0,0,36.12,87.31H84a17.27,17.27,0,0,1,4.55,1.35,12.26,12.26,0,0,1,5.82,5.58q1.68,3.53,1.68,17.18v99q0,13.64-1.68,17.11a12.6,12.6,0,0,1-5.82,5.63q-4.16,2.19-15.82,2.18V240h86.09v-4.58q-11.52,0-15.74-2.11a12.25,12.25,0,0,1-5.9-5.6q-1.66-3.55-1.67-17.16V163.34h11L200.74,240h54.92a135.82,135.82,0,0,0,10.73-14.62ZM181.86,140a25.68,25.68,0,0,1-13.46,11.4q-8.57,3.17-25.78,3.16h-7.07V80.89h13.27q20,0,28.94,9.18t9,28.39A41.77,41.77,0,0,1,181.86,140Z"/><path class="cls-4" d="M585.45,157.43a7.37,7.37,0,0,1,0,.75,2.15,2.15,0,0,1-.12.5.6.6,0,0,1-.19.28.38.38,0,0,1-.25.09h-5v15.8a.39.39,0,0,1-.1.27.74.74,0,0,1-.33.2,3.24,3.24,0,0,1-.62.12,11.78,11.78,0,0,1-1.94,0,3.24,3.24,0,0,1-.62-.12.64.64,0,0,1-.33-.2.39.39,0,0,1-.1-.27v-15.8h-5a.39.39,0,0,1-.26-.09.68.68,0,0,1-.18-.28,1.74,1.74,0,0,1-.12-.5,5.28,5.28,0,0,1,0-.75,5.69,5.69,0,0,1,0-.77,1.74,1.74,0,0,1,.12-.5.68.68,0,0,1,.18-.28.45.45,0,0,1,.26-.08h14a.44.44,0,0,1,.25.08.6.6,0,0,1,.19.28,2.15,2.15,0,0,1,.12.5C585.43,156.87,585.45,157.13,585.45,157.43Z"/><path class="cls-4" d="M610.87,174.85a.5.5,0,0,1-.08.27.62.62,0,0,1-.31.2,3,3,0,0,1-.59.12,8,8,0,0,1-.93,0,7.86,7.86,0,0,1-.92,0,2.75,2.75,0,0,1-.58-.12.62.62,0,0,1-.31-.2.44.44,0,0,1-.09-.27V158.9h0l-5.74,15.93a.79.79,0,0,1-.2.33,1,1,0,0,1-.38.2,2.26,2.26,0,0,1-.6.1c-.25,0-.54,0-.89,0s-.64,0-.89,0a2.7,2.7,0,0,1-.6-.13,1.13,1.13,0,0,1-.38-.2.59.59,0,0,1-.18-.29l-5.54-15.93h0v15.95a.5.5,0,0,1-.08.27.65.65,0,0,1-.32.2,3.19,3.19,0,0,1-.59.12,10.6,10.6,0,0,1-1.84,0,3,3,0,0,1-.59-.12.62.62,0,0,1-.31-.2.5.5,0,0,1-.08-.27V157.39a1.6,1.6,0,0,1,.41-1.18,1.51,1.51,0,0,1,1.1-.41h2.64a6,6,0,0,1,1.21.11,2.45,2.45,0,0,1,.87.38,2.19,2.19,0,0,1,.61.7,5,5,0,0,1,.43,1.07l4.28,11.67h.07l4.43-11.64a6.33,6.33,0,0,1,.44-1.08,2.53,2.53,0,0,1,.55-.71,2,2,0,0,1,.74-.39,4.25,4.25,0,0,1,1-.11h2.71a1.93,1.93,0,0,1,.71.11,1.18,1.18,0,0,1,.49.31,1.29,1.29,0,0,1,.29.5,2,2,0,0,1,.1.67Z"/></svg>